HIERARCHY
ROOT Hips
{
	OFFSET 0.000000 88.474243 0.000000
	CHANNELS 6 Xposition Yposition Zposition Zrotation Yrotation Xrotation 
	JOINT Hips_Spine
	{
		OFFSET 0.000000 0.000000 0.000000
		CHANNELS 3 Zrotation Yrotation Xrotation
		JOINT Spine
		{
			OFFSET 0.005100 8.711998 -0.691000
			CHANNELS 3 Zrotation Yrotation Xrotation
			JOINT Spine1
			{
				OFFSET -0.009200 8.660301 -1.275000
				CHANNELS 3 Zrotation Yrotation Xrotation
				JOINT Spine2
				{
					OFFSET 0.006300 9.852501 -1.857000
					CHANNELS 3 Zrotation Yrotation Xrotation
					JOINT Spine2_Neck
					{
						OFFSET 0.000000 0.000000 0.000000
						CHANNELS 3 Zrotation Yrotation Xrotation
						JOINT Neck
						{
							OFFSET 0.016300 11.420799 -0.263300
							CHANNELS 3 Zrotation Yrotation Xrotation
							End Site #name: Head
							{
								OFFSET -0.019200 9.262405 2.362500
							}
						}
					}
					JOINT Spine2_LeftShoulder
					{
						OFFSET 0.000000 0.000000 0.000000
						CHANNELS 3 Zrotation Yrotation Xrotation
						JOINT LeftShoulder
						{
							OFFSET 5.616900 6.732201 -0.345700
							CHANNELS 3 Zrotation Yrotation Xrotation
							JOINT LeftArm
							{
								OFFSET 10.664888 -0.183372 -2.440700
								CHANNELS 3 Zrotation Yrotation Xrotation
								JOINT LeftForeArm
								{
									OFFSET 27.459126 0.000000 0.000000
									CHANNELS 3 Zrotation Yrotation Xrotation
									End Site #name: LeftHand
									{
										OFFSET 21.306858 0.000000 0.000000
									}
								}
							}
						}
					}
					JOINT Spine2_RightShoulder
					{
						OFFSET 0.000000 0.000000 0.000000
						CHANNELS 3 Zrotation Yrotation Xrotation
						JOINT RightShoulder
						{
							OFFSET -5.580300 6.737503 -0.344400
							CHANNELS 3 Zrotation Yrotation Xrotation
							JOINT RightArm
							{
								OFFSET -10.679335 -0.188484 -2.383900
								CHANNELS 3 Zrotation Yrotation Xrotation
								JOINT RightForeArm
								{
									OFFSET -27.503529 0.000000 0.000000
									CHANNELS 3 Zrotation Yrotation Xrotation
									End Site #name: RightHand
									{
										OFFSET -21.306808 0.000000 0.000000
									}
								}
							}
						}
					}
				}
			}
		}
	}
	JOINT Hips_LeftUpLeg
	{
		OFFSET 0.000000 0.000000 0.000000
		CHANNELS 3 Zrotation Yrotation Xrotation
		JOINT LeftUpLeg
		{
			OFFSET 6.857700 -6.739601 0.312100
			CHANNELS 3 Zrotation Yrotation Xrotation
			JOINT LeftLeg
			{
				OFFSET -0.367590 -34.731552 -4.572400
				CHANNELS 3 Zrotation Yrotation Xrotation
				End Site #name: LeftFoot
				{
					OFFSET 0.367590 -34.656704 -6.067400
				}
			}
		}
	}
	JOINT Hips_RightUpLeg
	{
		OFFSET 0.000000 0.000000 0.000000
		CHANNELS 3 Zrotation Yrotation Xrotation
		JOINT RightUpLeg
		{
			OFFSET -6.876100 -6.733299 0.301000
			CHANNELS 3 Zrotation Yrotation Xrotation
			JOINT RightLeg
			{
				OFFSET 0.347353 -34.795158 -4.515900
				CHANNELS 3 Zrotation Yrotation Xrotation
				End Site #name: RightFoot
				{
					OFFSET -0.347353 -34.589367 -6.070300
				}
			}
		}
	}
}
MOTION
Frames: 17
Frame Time: 0.041667
2.350447 -1.656306 -2.747667 -8.933168 38.966442 -5.829048 0.000000 -0.000000 -0.000000 2.525417 -7.550236 3.427932 4.603413 -1.152542 5.510569 0.000000 0.000000 0.000000 4.830739 -1.422427 6.070167 -0.126404 -10.102546 -4.348196 2.417144 -0.849764 3.980938 -7.004343 1.454450 -4.055861 -86.023241 -18.611686 -16.443140 -1.684793 19.278528 0.756094 4.380769 -2.319830 5.529752 20.266807 16.890628 2.982079 53.842107 15.102028 -12.346772 178.696475 35.942278 -175.943563 0.000000 0.000000 -0.000000 2.024242 20.010257 -15.341869 -3.648415 -20.887607 3.072866 0.000000 0.000000 0.000000 3.924250 -14.149234 -4.757183 -1.331207 0.375840 12.398671 
2.404161 -1.692904 -2.830034 -8.816463 38.841624 -5.732117 0.000000 -0.000000 -0.000000 2.505080 -7.568300 3.442064 4.555827 -1.144359 5.478532 0.000000 0.000000 0.000000 4.802743 -1.418613 6.028056 -0.162261 -9.853277 -4.390732 2.401150 -0.847451 3.953084 -6.998591 1.378699 -4.057561 -86.028695 -18.694435 -16.509066 -1.697908 19.330899 0.747221 4.347526 -2.309644 5.505276 20.423471 16.992813 3.011353 53.864925 14.987775 -11.982134 178.717667 36.150510 -175.918762 0.000000 0.000000 -0.000000 2.025341 19.925425 -15.370530 -3.667554 -20.890806 3.085820 0.000000 0.000000 0.000000 3.972551 -14.203983 -4.767971 -1.412207 0.371935 12.442860 
2.457540 -1.728433 -2.911056 -8.704763 38.709179 -5.634545 0.000000 -0.000000 -0.000000 2.483269 -7.579040 3.452711 4.505983 -1.133971 5.444275 0.000000 0.000000 0.000000 4.773031 -1.412987 5.986070 -0.207525 -9.542691 -4.445347 2.383069 -0.839387 3.936098 -6.989042 1.291721 -4.054113 -86.036392 -18.752902 -16.578131 -1.713057 19.397449 0.738198 4.310948 -2.295674 5.481782 20.563456 17.054517 3.026415 53.892976 14.894891 -11.626914 178.738869 36.301980 -175.889616 0.000000 0.000000 -0.000000 2.026403 19.847292 -15.407099 -3.681483 -20.862340 3.101566 0.000000 0.000000 0.000000 4.015369 -14.269550 -4.782530 -1.481636 0.384504 12.482557 
2.510985 -1.762920 -2.991165 -8.597371 38.570940 -5.536411 0.000000 -0.000000 -0.000000 2.455828 -7.584099 3.464989 4.456416 -1.120985 5.409656 0.000000 0.000000 0.000000 4.743342 -1.405964 5.944445 -0.263952 -9.173440 -4.510537 2.366196 -0.828611 3.920909 -6.981261 1.190922 -4.049015 -86.036635 -18.804906 -16.666352 -1.727153 19.468749 0.731278 4.274559 -2.280024 5.462049 20.695252 17.080831 3.022058 53.933789 14.825927 -11.264912 178.761356 36.415226 -175.856296 0.000000 0.000000 -0.000000 2.028095 19.775706 -15.454013 -3.694316 -20.823386 3.124861 0.000000 0.000000 0.000000 4.050505 -14.339020 -4.797003 -1.541478 0.403984 12.511313 
2.564951 -1.796273 -3.070480 -8.495770 38.419487 -5.441668 0.000000 -0.000000 -0.000000 2.426935 -7.588777 3.473669 4.411568 -1.107653 5.375703 0.000000 0.000000 0.000000 4.716751 -1.399031 5.907964 -0.331060 -8.765113 -4.574500 2.351193 -0.813377 3.913016 -6.966266 1.081759 -4.043575 -86.029799 -18.854789 -16.762090 -1.741389 19.554161 0.722804 4.241454 -2.262567 5.445354 20.823242 17.104804 3.008094 53.965083 14.779389 -10.950113 178.779801 36.449259 -175.821658 0.000000 0.000000 -0.000000 2.029436 19.705036 -15.505770 -3.707576 -20.784869 3.157549 0.000000 -0.000000 0.000000 4.080857 -14.393503 -4.809231 -1.593598 0.421891 12.524394 
2.619871 -1.828596 -3.149282 -8.403483 38.270262 -5.352141 0.000000 -0.000000 -0.000000 2.404742 -7.588309 3.475883 4.377503 -1.093336 5.340755 0.000000 0.000000 0.000000 4.697922 -1.390268 5.876978 -0.403461 -8.320264 -4.651376 2.340258 -0.791519 3.915379 -6.939379 0.942729 -4.028488 -86.030554 -18.878080 -16.890650 -1.757361 19.637710 0.715160 4.215247 -2.241684 5.432754 20.960479 17.098409 2.982902 53.971909 14.779408 -10.701104 178.794523 36.413514 -175.787295 0.000000 0.000000 -0.000000 2.028987 19.633564 -15.548557 -3.718178 -20.753478 3.172490 0.000000 -0.000000 0.000000 4.104622 -14.446528 -4.820877 -1.635644 0.440681 12.526431 
2.676025 -1.860330 -3.227773 -8.318333 38.119584 -5.270029 0.000000 -0.000000 -0.000000 2.382528 -7.585718 3.472023 4.352033 -1.079436 5.302219 0.000000 0.000000 0.000000 4.685528 -1.380996 5.847371 -0.488481 -7.839182 -4.747658 2.333642 -0.766011 3.916208 -6.910702 0.820096 -4.022082 -86.042923 -18.888907 -17.046639 -1.768971 19.724708 0.712955 4.196407 -2.219604 5.417698 21.098941 17.066654 2.942951 53.974470 14.800807 -10.513398 178.807681 36.318670 -175.752149 0.000000 0.000000 -0.000000 2.029241 19.562300 -15.582595 -3.728742 -20.739054 3.177189 0.000000 -0.000000 0.000000 4.127757 -14.484822 -4.825098 -1.674291 0.453282 12.510147 
2.733808 -1.891801 -3.306061 -8.241810 37.959234 -5.197418 0.000000 -0.000000 -0.000000 2.355738 -7.577260 3.460237 4.334653 -1.065021 5.260278 0.000000 0.000000 0.000000 4.678532 -1.371784 5.820226 -0.578731 -7.333003 -4.853264 2.331197 -0.734410 3.922976 -6.899990 0.738248 -4.021364 -86.046429 -18.881474 -17.221984 -1.784602 19.850240 0.706434 4.184959 -2.196670 5.398021 21.236053 17.006252 2.884878 53.974132 14.853258 -10.368286 178.820327 36.139584 -175.711931 0.000000 -0.000000 -0.000000 2.031232 19.492245 -15.610997 -3.736280 -20.721672 3.170859 0.000000 -0.000000 0.000000 4.148480 -14.518376 -4.834851 -1.705215 0.463160 12.496739 
2.793892 -1.923200 -3.384537 -8.171646 37.784411 -5.127687 0.000000 -0.000000 -0.000000 2.320649 -7.566193 3.438779 4.322598 -1.050074 5.220244 0.000000 0.000000 0.000000 4.674835 -1.360676 5.796612 -0.668955 -6.798013 -4.968295 2.331069 -0.697548 3.931480 -6.885659 0.647589 -4.019392 -86.063012 -18.847853 -17.404081 -1.797359 20.007479 0.703754 4.179169 -2.172014 5.382741 21.361892 16.891928 2.796555 53.974039 14.950034 -10.283915 178.829116 35.875349 -175.673433 0.000000 -0.000000 -0.000000 2.030322 19.429800 -15.645154 -3.743515 -20.711898 3.171596 0.000000 -0.000000 0.000000 4.164079 -14.541130 -4.850562 -1.744703 0.457289 12.482920 
2.856642 -1.954759 -3.463045 -8.103805 37.584884 -5.056873 0.000000 -0.000000 -0.000000 2.279574 -7.524172 3.408693 4.312871 -1.033349 5.180390 0.000000 0.000000 0.000000 4.673450 -1.349370 5.774055 -0.747601 -6.268549 -5.081979 2.331027 -0.658031 3.948575 -6.850132 0.548991 -4.020104 -86.104991 -18.793041 -17.565802 -1.809862 20.203192 0.701599 4.175667 -2.147662 5.374847 21.471724 16.702647 2.672935 53.961632 15.036609 -10.193721 178.836428 35.550826 -175.634840 0.000000 -0.000000 -0.000000 2.028411 19.378046 -15.681636 -3.748049 -20.692500 3.176861 0.000000 -0.000000 0.000000 4.173512 -14.542873 -4.868662 -1.789200 0.434647 12.461972 
2.922544 -1.986387 -3.541404 -8.038780 37.381203 -4.986063 0.000000 -0.000000 -0.000000 2.235850 -7.462072 3.374289 4.297464 -1.012947 5.138576 0.000000 0.000000 0.000000 4.673194 -1.338807 5.752772 -0.825997 -5.751362 -5.180543 2.329966 -0.611950 3.971900 -6.790609 0.448059 -4.032855 -86.214985 -18.707431 -17.693126 -1.822875 20.459015 0.699030 4.171244 -2.125486 5.371585 21.573555 16.428758 2.508920 53.938097 15.154208 -10.154804 178.843208 35.144860 -175.596889 0.000000 -0.000000 -0.000000 2.020811 19.336617 -15.727553 -3.752372 -20.664905 3.195621 0.000000 -0.000000 0.000000 4.175457 -14.536888 -4.893494 -1.837490 0.393317 12.440840 
2.992249 -2.018169 -3.619665 -7.977070 37.177075 -4.916062 0.000000 -0.000000 -0.000000 2.184401 -7.384154 3.343409 4.275893 -0.995069 5.091383 0.000000 0.000000 0.000000 4.671887 -1.330426 5.732440 -0.903167 -5.246705 -5.267987 2.331731 -0.565521 3.987908 -6.698873 0.273185 -4.032144 -86.345647 -18.602935 -17.845294 -1.836837 20.731688 0.695265 4.165282 -2.105092 5.365667 21.665098 16.081597 2.313017 53.940314 15.254263 -10.153504 178.846504 34.685831 -175.568447 0.000000 -0.000000 -0.000000 2.004978 19.304521 -15.782137 -3.756499 -20.631943 3.216292 0.000000 -0.000000 0.000000 4.171024 -14.496196 -4.924016 -1.889847 0.324478 12.414360 
3.066284 -2.049973 -3.697672 -7.914770 36.980761 -4.840967 0.000000 -0.000000 -0.000000 2.122931 -7.290846 3.311100 4.246434 -0.975274 5.043260 0.000000 0.000000 0.000000 4.663832 -1.322658 5.709798 -0.945686 -4.775493 -5.353232 2.333541 -0.518687 4.004060 -6.522359 0.032872 -4.043821 -86.526797 -18.434009 -18.030416 -1.850786 21.063161 0.693258 4.154463 -2.086765 5.360587 21.746255 15.689593 2.095422 53.954859 15.356100 -10.212456 178.844283 34.177373 -175.552561 0.000000 -0.000000 -0.000000 1.979836 19.280253 -15.848819 -3.759517 -20.596936 3.241087 0.000000 -0.000000 0.000000 4.158388 -14.427143 -4.959066 -1.950222 0.225943 12.374609 
3.145058 -2.081821 -3.775609 -7.845875 36.797431 -4.752466 0.000000 -0.000000 -0.000000 2.069546 -7.177816 3.265836 4.210159 -0.956970 4.991464 0.000000 0.000000 0.000000 4.649002 -1.315461 5.683829 -0.904398 -4.326865 -5.457955 2.335117 -0.477378 4.024026 -6.291339 -0.285859 -4.027661 -86.747450 -18.204109 -18.266220 -1.858672 21.443527 0.697469 4.136843 -2.069677 5.352045 21.806673 15.260414 1.908693 53.986848 15.454844 -10.264009 178.841218 33.613272 -175.539026 0.000000 -0.000000 -0.000000 1.941152 19.260896 -15.942559 -3.763906 -20.544376 3.287310 0.000000 -0.000000 0.000000 4.134137 -14.319499 -5.008955 -2.018554 0.091300 12.343874 
3.228937 -2.113981 -3.853550 -7.777510 36.666328 -4.663669 0.000000 -0.000000 -0.000000 2.021462 -7.054516 3.220018 4.166715 -0.938200 4.935649 0.000000 0.000000 0.000000 4.626217 -1.306434 5.655472 -0.884950 -3.892280 -5.585847 2.330549 -0.435480 4.065786 -6.025536 -0.659384 -3.947534 -87.018394 -17.923436 -18.522543 -1.863835 21.863159 0.706154 4.110819 -2.052612 5.342385 21.835726 14.830170 1.809610 54.043368 15.562066 -10.362268 178.835666 33.007962 -175.525469 0.000000 -0.000000 -0.000000 1.891693 19.251493 -16.046224 -3.767327 -20.496234 3.327172 0.000000 -0.000000 0.000000 4.089246 -14.187156 -5.066983 -2.068288 -0.083721 12.307110 
3.318561 -2.146392 -3.931608 -7.708653 36.583105 -4.569697 0.000000 -0.000000 -0.000000 1.980549 -6.920754 3.172932 4.116472 -0.921453 4.878884 0.000000 0.000000 0.000000 4.595590 -1.295500 5.624847 -0.891854 -3.437134 -5.746340 2.319869 -0.400716 4.098086 -5.776963 -0.987419 -3.849477 -87.272595 -17.651753 -18.774789 -1.866780 22.273004 0.715687 4.076553 -2.032129 5.331751 21.854162 14.494266 1.763380 54.150562 15.602243 -10.461455 178.829116 32.452362 -175.514754 0.000000 -0.000000 -0.000000 1.829147 19.240192 -16.172583 -3.772672 -20.450601 3.374951 0.000000 -0.000000 0.000000 4.023154 -14.024578 -5.128074 -2.129572 -0.321428 12.260375 
3.415158 -2.179234 -4.008894 -7.637647 36.560464 -4.467030 0.000000 -0.000000 -0.000000 1.932453 -6.796441 3.150373 4.053719 -0.904948 4.818435 0.000000 0.000000 0.000000 4.549690 -1.280991 5.582141 -0.904187 -2.991088 -5.925886 2.302608 -0.372722 4.118243 -5.586885 -1.244065 -3.769807 -87.489087 -17.415819 -19.028948 -1.869897 22.644177 0.720835 4.030436 -2.011900 5.307661 21.861820 14.317906 1.807453 54.288552 15.541237 -10.548892 178.823784 31.930810 -175.509201 0.000000 -0.000000 -0.000000 1.757399 19.222978 -16.306150 -3.777244 -20.406520 3.412084 0.000000 -0.000000 0.000000 3.940474 -13.828551 -5.202516 -2.193843 -0.615929 12.207886 
